<?xml version="1.0" encoding="UTF-8"?>
<svg xmlns="http://www.w3.org/2000/svg" version="1.1" viewBox="0 0 32 32">
  <defs>
    <style>
      .cls-1 {
        fill: #073c36;
      }

      .cls-2 {
        fill: #dcb36a;
      }
    </style>
  </defs>
  <!-- Generator: Adobe Illustrator 28.7.0, SVG Export Plug-In . SVG Version: 1.2.0 Build 23)  -->
  <g>
    <g id="Layer_1">
      <rect class="cls-1" width="32" height="32"/>
      <g>
        <path class="cls-2" d="M3.96,15.62c.45-.28.88-.62,1.38-.78.18-.06.36-.13.52-.21.54-.28,1.11-.43,1.69-.53.24-.04.48-.14.7-.16.07-.07.05-.13.05-.19-.03-.36.05-.47.37-.46.12,0,.2-.11.32-.11q-.09.31-.56.74c.2.06.38.03.53,0,.05-.1.01-.17,0-.24-.02-.2.07-.4.21-.43.25-.05.47-.22.75-.21-.17.13-.27.33-.34.54-.06.18-.23.17-.36.3.17.1.34-.02.49.03.07.19-.03.24-.14.26-.02.06,0,.09.03.09.13.03.18.11.13.26-.04.14-.13.12-.23.09-.43-.13-.88-.16-1.32-.12-.36.03-.72.03-1.07.15-.16.06-.27.14-.29.36-.02.18-.08.35-.08.53,0,.11-.03.21-.07.31-.31.81-.5,1.66-.61,2.53-.04.33,0,.65.1.95.09.29.29.5.53.62.52.24,1.04.25,1.56,0,.33-.16.66-.32.99-.5.32-.17.77-.04,1.01.3-.15.02-.29-.02-.43-.05-.26-.06-.49,0-.73.18-.44.33-.9.63-1.45.64-.22,0-.42.09-.64.09-.48,0-.89-.23-1.25-.55-.22-.19-.28-.5-.24-.81.03-.19.04-.38.02-.58-.12.03-.08.12-.08.2.04.36-.13.6-.44.61-.16,0-.31.01-.46.07-.09.04-.2.03-.31-.03.22-.1.33-.33.45-.52.08-.13.18-.24.33-.25.21-.01.37-.14.53-.31-.07-.08-.15-.16-.15-.29,0-.12.09-.18.16-.25.15-.16.15-.39.19-.59.14-.69.26-1.4.39-2.13-.71.21-1.3.6-1.9,1.01-.02-.27-.17-.39-.32-.5v-.07Z"/>
        <path class="cls-2" d="M12.3,15.47c-.29.19-.56.37-.82.55-.06.04-.1.09-.1.17-.01.56-.19,1.1-.17,1.67.02.63.22.98.71,1.22.08.04.16.06.24.06.58,0,1.16.06,1.72-.14.04-.01.08-.03.13.03-.08.22-.21.36-.42.4-.59.13-1.17.29-1.76-.02-.16-.08-.35-.13-.53-.18-.22-.06-.36-.23-.45-.46-.12-.35-.2-.71-.11-1.09.11-.44.14-.89.14-1.35-.29-.02-.41.34-.66.38-.12-.08,0-.24-.14-.32-.09-.05.01-.19.1-.24.18-.1.36-.18.54-.28.16-.09.23-.22.25-.44.06-.49-.02-.98.07-1.47.06-.31.2-.39.44-.22.09.06.18.12.24.22-.11.48-.19.97-.27,1.51.34-.17.63-.32.92-.46.07-.04.11-.1.12-.19.04-.46.09-.93-.04-1.39-.02-.08-.05-.16-.05-.24,0-.06,0-.12.02-.17.04-.14.2,0,.21-.07.03-.11.05-.23.16-.21.15.04.29-.06.47-.03.09.61-.2,1.2-.11,1.8.1.1.2-.06.31.02.09.2-.04.32-.17.37-.25.1-.31.33-.33.58-.02.22-.12.43-.11.69.29-.46.64-.81.98-1.17.17-.18.38-.11.47.15.14.41.16.84.21,1.26.04.37.09.74.16,1.1.16.77.57,1.26,1.23,1.46.15.05.29.1.42.21.23.19.51.2.77.26.29.07.56.17.71.49.18,0,.24-.16.32-.28.28-.42.65-.42,1.07-.34-.42.45-.88.7-1.42.75-.01.26.17.3.24.44.07.15.1.3.03.5-.11-.09-.21-.17-.31-.25-.13-.1-.15-.23-.12-.41.09-.43,0-.62-.38-.74-.15-.05-.31-.04-.46-.07-.64-.12-1.26-.34-1.82-.69-.5-.32-.79-.88-.86-1.55-.03-.34-.1-.68-.1-1.03,0-.31-.03-.33-.34-.38-.08.07-.02.15-.02.23,0,.12-.02.24-.12.27-.38.12-.5.51-.63.86-.15.41-.33.82-.34,1.3-.21-.02-.37-.02-.52.13.14-1.05.3-2.09.23-3.21Z"/>
        <path class="cls-2" d="M17.7,16.85c-.05.4.03.52.34.57.18.03.27.09.22.33-.3.15-.61,0-.9-.06-.21-.05-.21-.32-.23-.53-.14,0-.22.24-.38.1-.03-.17.08-.25.18-.33.25-.21.32-.48.24-.85-.18.22-.29.46-.41.69-.17.32-.39.59-.61.85-.17.2-.37.35-.6.42-.38.12-.65-.08-.68-.53-.02-.35.01-.69.18-1,.19-.35.37-.72.57-1.06.31-.55.79-.9,1.2-1.33.12-.13.23-.27.38-.36.3-.17.41-.08.45.3.08.75.01,1.5.06,2.27.23.03.5-.06.7.15.05.05.11.05.17.08.42.2.83.11,1.24,0,.11-.44.08-.53-.28-.69-.51-.23-.94-.6-1.37-.98-.11-.09-.2-.21-.01-.32.06-.04.05-.09.05-.15.03-.51.45-.85.87-.7.12.04.24.08.36.12.06.02.14.05.18.02.29-.23.54-.04.79.12.02.14,0,.24-.15.26-.2.03-.4.11-.61.03-.16-.05-.33-.03-.49,0-.28.06-.34.26-.16.51.12.17.29.26.46.35.3.16.62.28.9.47.28.19.34.37.23.72-.09.29-.13.6-.42.75-.41.22-.84.37-1.29.23-.38-.12-.78-.2-1.17-.46ZM15.18,17.36c.23.14.32.11.42-.13.05-.13.09-.31.22-.32.29-.02.41-.26.57-.49.28-.41.5-.84.7-1.3.06-.14.1-.29,0-.43-.6.2-1.68,1.7-1.92,2.67Z"/>
        <path class="cls-2" d="M23.04,12.9c-.05.17-.14.29-.28.36-.38.2-.68.54-1.03.79-.1.07-.08.18-.11.27-.06.24.04.54-.18.75.16.07.19.24.21.4.04.28.09.56.18.83.23.68.69,1.09,1.32,1.09.66,0,1.32-.04,1.91-.45.25-.17.55-.28.86-.25.11.01.22-.03.33-.07.31-.12.39-.09.35-.53-.02-.2.06-.35.2-.45.11-.08.22-.16.38-.27-.13.4-.05.8-.33,1.07.11.05.18-.01.26-.03.19-.05.37-.05.51.14.15.2.38.21.56.35-.36-.02-.73.1-1.06-.16-.18-.15-.39-.12-.6-.07.1.04.23,0,.32.1.09.09.12.22.16.34.07.21.28.23.43.42-.35-.03-.64-.17-.92-.3-.14-.07-.15-.27-.17-.46-.52.19-1.07.18-1.53.54-.32.25-.7.32-1.09.33-.37,0-.75.02-1.12.03-.63,0-1.37-.66-1.46-1.55-.04-.38-.04-.77-.04-1.15,0-.13,0-.26,0-.43-.21.12-.32.29-.33.53-.03,0-.04,0-.05-.01-.38-.36-.4-.66.03-.89.37-.2.44-.51.49-.89.04-.34.1-.68.16-1.05.22.03.41-.14.69-.15-.16.49-.43.9-.41,1.42.11.08.19.03.27-.02.21-.14.42-.24.64-.35.2-.09.21-.16.09-.37-.07-.13-.19-.23-.14-.41.07-.23.1-.49.29-.65.01,0,.04,0,.09.02-.22.37.03.75-.03,1.13,0,.06.06.05.1.03.01.01.03.03.04.04Z"/>
        <path class="cls-2" d="M9.27,17.25c-.17.55-.54.87-.93,1.17-.26.19-.45.48-.71.67-.17.12-.34.17-.53.15-.32-.02-.5-.27-.47-.65.06-.65.3-1.21.64-1.72.44-.64.99-1.1,1.65-1.38.17-.07.33-.12.51-.14.27-.02.4.11.43.43.03.35-.03.69-.07,1.03-.03.3-.06.59,0,.89.03.14.03.28,0,.42-.1.39-.03.51.32.63.03,0,.06.02.07.09-.16.18-.37.26-.58.34-.12.05-.17-.08-.21-.2-.15-.45-.15-.91-.11-1.38,0-.12.05-.23-.02-.36ZM9.3,15.94c-.17-.03-.31.04-.43.15-.41.36-.82.72-1.17,1.15-.23.28-.41.6-.53.95-.04.13-.06.26.02.37.1.13.21.03.31,0,.24-.08.36-.42.65-.39,0,0,.02-.04.03-.06.05-.18.18-.28.28-.42.27-.36.57-.69.76-1.12.09-.2.18-.4.08-.65Z"/>
        <path class="cls-2" d="M23.34,13.35c-.1.59-.1,1.16-.15,1.73,0,.08,0,.17.03.25.11.31.38.35.56.09.03-.05.05-.11.08-.15.12-.21.22-.44.39-.61.22-.21.31-.53.32-.86,0-.25.02-.5.03-.79.21.12.34-.16.56-.06-.08.35-.11.7-.11,1.06,0,.48.03.96.08,1.43.02.18.03.35-.03.52-.04.12-.06.23.06.31.1.02.13-.16.24-.12.06.32,0,.43-.25.45-.12.01-.25,0-.37-.05-.09-.05-.16-.11-.16-.24,0-.18,0-.36,0-.54,0-.11.12-.18.08-.3-.03-.09-.02-.19-.05-.3-.1.03-.17.13-.22.22-.2.37-.49.63-.8.86-.23.18-.47.28-.75.11-.11-.07-.19-.13-.2-.28-.01-.3-.06-.6-.01-.92.06-.44.08-.9.1-1.35,0-.14.02-.24.13-.33.25-.18.24-.19.41-.13Z"/>
        <path class="cls-2" d="M23,12.86c.04-.1.04-.21.02-.31-.03-.26.08-.43.27-.54.15-.08.28-.18.43-.29-.18.32-.16.77-.52.98-.07.04-.12.13-.17.2-.01-.01-.03-.03-.04-.04Z"/>
        <path class="cls-2" d="M18.22,20.28c.41-.08.71.03,1.01.38-.36.22-.59.13-1.01-.38Z"/>
      </g>
    </g>
  </g>
</svg>